<svg width="23" height="23" viewBox="0 0 23 23" fill="none" xmlns="http://www.w3.org/2000/svg">
<path d="M7.07108 15.5564C6.93043 15.4157 6.85141 15.225 6.85141 15.0261C6.85141 14.8272 6.93043 14.6364 7.07108 14.4957L13.2844 8.28239L8.88057 8.52705C8.68266 8.53692 8.48888 8.46807 8.34157 8.33553C8.19426 8.20299 8.10539 8.01755 8.09436 7.8197C8.08334 7.62185 8.15106 7.42767 8.28274 7.27959C8.41442 7.13152 8.59935 7.04157 8.79713 7.02939L15.1611 6.67584C15.2666 6.66986 15.3721 6.68623 15.4708 6.72388C15.5695 6.76153 15.6592 6.8196 15.7339 6.89431C15.8086 6.96901 15.8667 7.05865 15.9043 7.15736C15.942 7.25607 15.9583 7.36162 15.9523 7.46709L15.5988 13.8311C15.5939 13.9298 15.5695 14.0266 15.527 14.1158C15.4845 14.2051 15.4248 14.2851 15.3514 14.3512C15.2779 14.4174 15.192 14.4683 15.0988 14.5011C15.0055 14.534 14.9067 14.548 14.808 14.5425C14.7093 14.537 14.6127 14.5121 14.5236 14.4691C14.4346 14.4261 14.355 14.3659 14.2893 14.2921C14.2236 14.2182 14.1731 14.1321 14.1408 14.0386C14.1086 13.9452 14.0951 13.8463 14.1011 13.7476L14.3451 9.34305L8.13174 15.5564C7.99109 15.697 7.80032 15.7761 7.60141 15.7761C7.4025 15.7761 7.21173 15.697 7.07108 15.5564Z" fill="black"/>
</svg>
