<svg width="16" height="16" viewBox="0 0 16 16" fill="none" xmlns="http://www.w3.org/2000/svg">
<path d="M8 2.00001C8.19891 2.00001 8.38968 2.07903 8.53033 2.21968C8.67098 2.36033 8.75 2.5511 8.75 2.75001L8.75 11.537L11.691 8.25001C11.824 8.10308 12.0097 8.01475 12.2075 8.0043C12.4054 7.99385 12.5994 8.06214 12.7471 8.19425C12.8948 8.32636 12.9842 8.51154 12.9958 8.70936C13.0074 8.90718 12.9402 9.10155 12.809 9.25001L8.559 14C8.48864 14.0788 8.40243 14.1419 8.30602 14.1851C8.2096 14.2282 8.10514 14.2505 7.9995 14.2505C7.89385 14.2505 7.7894 14.2282 7.69298 14.1851C7.59656 14.1419 7.51035 14.0788 7.44 14L3.19 9.25001C3.12366 9.17671 3.07248 9.09102 3.03938 8.99787C3.00628 8.90471 2.99192 8.80594 2.99714 8.70722C3.00235 8.6085 3.02702 8.51178 3.06975 8.42263C3.11247 8.33348 3.1724 8.25366 3.24608 8.18775C3.31977 8.12184 3.40575 8.07115 3.4991 8.0386C3.59244 8.00604 3.6913 7.99226 3.78999 7.99804C3.88868 8.00383 3.98525 8.02907 4.07415 8.07231C4.16305 8.11555 4.24252 8.17594 4.308 8.25001L7.25 11.537L7.25 2.75001C7.25 2.5511 7.32902 2.36033 7.46967 2.21968C7.61032 2.07903 7.80109 2.00001 8 2.00001Z" fill="black"/>
</svg>
